<?xml version="1.0" standalone="no"?>
<!DOCTYPE svg PUBLIC "-//W3C//DTD SVG 1.1//EN" "http://www.w3.org/Graphics/SVG/1.1/DTD/svg11.dtd" >
<svg xmlns="http://www.w3.org/2000/svg" xmlns:xlink="http://www.w3.org/1999/xlink" version="1.1">
<metadata></metadata>
<defs>
<font id="asessorregular" horiz-adv-x="901" >
<font-face units-per-em="2048" ascent="1638" descent="-410" />
<missing-glyph horiz-adv-x="550" />
<glyph horiz-adv-x="0" />
<glyph unicode="&#xd;" horiz-adv-x="550" />
<glyph unicode=" "  horiz-adv-x="550" />
<glyph unicode="&#x09;" horiz-adv-x="550" />
<glyph unicode="&#xa0;" horiz-adv-x="550" />
<glyph unicode="!" horiz-adv-x="480" d="M143 97q0 55 37 99t91 44q55 0 91 -36.5t36 -92.5q0 -62 -39.5 -100.5t-101.5 -38.5q-114 0 -114 125zM220 348q44 52 70 114q6 15 41 127l200 613q2 6 1 11q0 24 -29 40q-26 15 -51 15q134 38 274 94q62 29 189 70q-108 -74 -143 -141q-37 -93 -74 -187l-197 -495 q-39 -97 -77 -137q-29 -30 -99 -64q-78 -39 -105 -60z" />
<glyph unicode="&#x22;" horiz-adv-x="755" d="M437 874q179 120 179 220q0 24 -33 36q-47 16 -61 28q-32 30 -32 100q0 52 31.5 90.5t83.5 38.5q132 0 132 -140q0 -113 -88 -234q-83 -112 -191 -168zM730 874q179 120 179 220q0 24 -34 36q-47 16 -61 28q-32 30 -32 100q0 52 32 90.5t83 38.5q132 0 133 -140 q0 -113 -89 -234q-83 -112 -190 -168z" />
<glyph unicode="#" horiz-adv-x="1248" d="M90 378q63 96 62 160q0 20 -5 35q41 -45 110 -44h173l91 294l-296 4q62 96 62 160q0 20 -6 35q41 -45 111 -45h178l115 373q50 -19 99 -19q57 0 98 21q-64 -57 -84 -125l-72 -248l331 2l116 369q50 -19 99 -19q57 0 98 21q-64 -57 -84 -125l-72 -246l312 2 q-65 -83 -65 -148q0 -23 10 -43q-31 24 -158 26q-73 0 -148 -1l-84 -285l310 2q-64 -82 -64 -152q0 -23 9 -39q-31 24 -157 27q-74 0 -147 -1l-103 -352q-47 26 -96 26q-54 0 -98 -30q41 48 83 179q25 90 50 179l-322 1l-105 -355q-47 26 -96 26q-54 0 -97 -30q41 47 83 182 q26 90 51 179zM593 531l326 1l88 285l-328 4z" />
<glyph unicode="$" horiz-adv-x="1223" d="M191 350q0 165 124 262q114 90 284 90q332 0 503 -251q18 50 18 113q0 116 -162 199l-207 107q-112 58 -113 204q0 159 126 249q113 82 276 73l53 171l87 4l-62 -186q33 -5 122 -35q82 -30 98 -30q20 0 36 26l26 -13l-149 -455l-32 4q6 23 6 49q0 76 -52 139 q-50 58 -125 83l-88 -250q44 -20 185 -119q131 -91 130 -279q0 -225 -198 -382q-185 -147 -416 -147l-60 -187l-84 2l60 194q-131 0 -257 116q-129 118 -129 249zM525 419q0 -63 38 -114q40 -55 100 -63l104 330h-14q-90 0 -150 -32q-78 -40 -78 -121zM743 231q14 -2 28 -2 q87 0 174.5 53.5t128.5 130.5q-82 110 -223 145zM868 1038q0 -44 31 -80l63 201q-94 -24 -94 -121z" />
<glyph unicode="%" horiz-adv-x="1646" d="M341 767q0 181 113 387q130 234 295 235q112 0 172 -79q52 -71 53 -188q0 -191 -110 -387q-127 -226 -302 -225q-110 0 -169 76q-52 69 -52 181zM460 884q0 -72 46 -119t118 -47q95 0 165 90q64 83 64 181q0 186 -155 186q-104 0 -174 -96q-64 -87 -64 -195zM570 0 l819 1368h100l-828 -1368h-91zM1094 229q0 185 115 390q130 235 297 235q105 0 166 -72q57 -69 57 -175q0 -201 -104 -398q-123 -232 -305 -233q-110 0 -169 73q-57 68 -57 180zM1215 351q0 -74 45 -120.5t119 -46.5q101 0 169 100q60 90 60 196q0 73 -41 117.5t-113 44.5 q-100 0 -173 -97q-66 -90 -66 -194z" />
<glyph unicode="&#x26;" horiz-adv-x="1576" d="M184 291q0 210 152 352q149 139 360 139q-23 2 -58 18q-152 70 -152 216q0 193 170 319q153 111 355 111q104 0 190 -41q110 -51 110 -145q0 -55 -51 -102.5t-107 -47.5q-54 0 -55 66q0 15 6 46t6 46q0 39 -30.5 64t-70.5 25q-109 0 -176 -117q-57 -99 -57 -216 q0 -85 62 -160l61 -76q0 -40 -54 -64q-1 -1 -59 -10q-121 -19 -223 -157q-97 -133 -97 -259q0 -104 46 -168q51 -74 149 -74q138 0 258 137q116 132 116 273q0 115 -102 115q-47 0 -90 -31q-47 -34 -47 -79q0 -31 27 -32q19 0 28 4l52 6q57 0 57 -65q0 -64 -45 -114 t-107 -50q-108 0 -108 152q0 156 122 280t278 124q90 0 229 -93.5t214 -93.5q52 0 85.5 39t33.5 92q0 43 -39 43q-20 0 -63 -22.5t-62 -22.5q-67 0 -66 76q0 65 54 114.5t120 49.5q68 0 107 -60q33 -52 33 -124q0 -137 -96 -259q-103 -131 -235 -131q-88 0 -240 92 q-59 -219 -244.5 -364t-411.5 -145q-151 0 -243 86.5t-92 237.5z" />
<glyph unicode="'" horiz-adv-x="424" d="M423 874q180 120 180 220q0 24 -33 36q-47 15 -61 28q-32 30 -33 100q0 52 32 90.5t84 38.5q132 0 132 -140q0 -113 -89 -234q-83 -112 -190 -168z" />
<glyph unicode="(" horiz-adv-x="599" d="M291 396q0 333 177 653q172 313 453 504l-6 -47q-205 -262 -320 -631q-110 -351 -109 -700q0 -166 33 -322l-12 -46q-216 215 -216 589z" />
<glyph unicode=")" horiz-adv-x="610" d="M123 -193l7 46q430 599 430 1331q0 170 -35 322l15 47q215 -214 215 -589q0 -333 -177 -654q-174 -316 -455 -503z" />
<glyph unicode="*" horiz-adv-x="783" d="M410 892q0 94 100 121l147 39l-152 33q-50 11 -51 71q0 43 31 78.5t73 35.5q48 0 74 -39l82 -121l-14 137q0 54 27 96q31 50 83 50q69 0 68 -64q0 -47 -94 -219l137 121q44 39 88 39q62 0 62 -80q0 -87 -90 -105l-168 -33l133 -39q57 -17 57 -71q0 -44 -33.5 -82.5 t-75.5 -38.5q-43 0 -87 72q-26 50 -52 101l19 -173q5 -43 -32.5 -74t-80.5 -31q-72 0 -72 66q0 36 42 110q30 51 62 102q-46 -48 -91 -95q-79 -76 -116 -76q-76 0 -76 69z" />
<glyph unicode="+" horiz-adv-x="702" d="M123 472q70 112 99 215q75 -8 225 -18q-1 83 -14 246q134 11 217 86q-13 -176 -22 -329q154 8 330 21q-74 -84 -86 -217q-69 8 -246 14q2 -50 18 -224q-102 -30 -214 -100q17 136 19 326q-190 -2 -326 -20z" />
<glyph unicode="," horiz-adv-x="415" d="M63 -273q54 28 113 94q66 75 66 127q0 21 -33 33q-47 16 -62 31q-33 31 -34 99q0 53 34.5 91t86.5 38q57 0 94 -39.5t37 -96.5q0 -112 -90 -236q-84 -115 -189 -172z" />
<glyph unicode="-" horiz-adv-x="766" d="M218 472q70 112 100 215q207 -20 275 -20q6 0 324 26q-72 -84 -86 -217q-125 15 -254 16q-208 -1 -359 -20z" />
<glyph unicode="." horiz-adv-x="411" d="M113 113q0 50 36.5 91.5t86.5 41.5q57 0 96 -41t39 -99q0 -54 -37.5 -91t-91.5 -37q-57 0 -93 38.5t-36 96.5z" />
<glyph unicode="/" horiz-adv-x="501" d="M67 13q39 39 76 127l514 1210q49 -19 98 -19q54 0 99 21q-70 -57 -97 -125l-498 -1210q-43 26 -93 26q-52 0 -99 -30z" />
<glyph unicode="0" d="M218 311q0 237 148 503q169 304 383 304q133 0 211 -95q73 -89 74 -225q0 -264 -134 -514q-157 -297 -395 -297q-137 0 -215 95q-72 89 -72 229zM374 469q0 -92 59.5 -155t151.5 -63q128 0 215 126q80 113 80 247q0 97 -49 156q-52 63 -148 63q-137 0 -227 -122 q-82 -110 -82 -252z" />
<glyph unicode="1" horiz-adv-x="899" d="M132 -19l2 38q151 35 261 200q68 101 147 308q52 136 108 306h-8q-70 0 -128.5 -50t-74.5 -120l-27 2l171 429q73 28 186 40q94 8 189 15q-78 -186 -186 -492q-135 -384 -136 -471q0 -104 88 -186q-119 6 -248 6q-182 0 -344 -25z" />
<glyph unicode="2" horiz-adv-x="903" d="M41 -4q79 217 490 439q131 71 176 110q90 77 89 177q0 59 -41 97.5t-100 38.5q-66 0 -112 -42.5t-46 -107.5q0 -56 35 -79q10 -6 86 -30q-45 -26 -99 -26q-87 0 -143 74q-52 69 -52 157q0 94 74 189q96 123 279 122q159 0 257 -77q107 -84 106 -238q0 -169 -214 -305 q-112 -70 -362 -165q-55 -21 -168 -99q80 11 145 11q40 0 120 -2t120 -2q82 0 130 33q45 30 83 105q7 13 9 24l28 -2l-133 -359q-19 -50 -123 -50q-76 0 -228.5 22t-228.5 22q-70 0 -164 -50z" />
<glyph unicode="3" d="M151 275q0 106 57 176q61 74 164 74q154 0 242 -134l-17 -7q-35 35 -92 35q-44 0 -77.5 -30t-33.5 -73q0 -46 48 -82q45 -33 92 -33q96 0 172 68.5t76 163.5q0 148 -214 148l5 37q191 22 192 127q0 48 -39 80.5t-88 32.5q-82 0 -148 -43q-71 -46 -92 -121l-22 -1l129 341 q78 63 227 62q250 0 249 -216q0 -155 -246 -275q118 -45 155 -85q47 -51 46 -167q0 -169 -142 -274q-129 -96 -302 -96q-130 0 -232 80q-110 87 -109 212z" />
<glyph unicode="4" horiz-adv-x="899" d="M145 229q93 136 151 307q95 281 145 366q118 202 304 202q115 0 197 -45l-117 -296q-106 72 -153 72q-176 0 -283 -297q9 -2 15 -2q22 0 66 8t66 8q21 0 62 -5t61 -5q25 0 43 22t18 47q0 11 -4 21l189 78q-29 -60 -76 -187q41 8 77 29q54 31 68 37l-88 -291 q-82 -30 -173 -30q0 -25 -3.5 -75.5t-3.5 -75.5q0 -69 53 -127q-240 13 -441 8l2 30q31 -2 35 -2q69 0 146.5 87t77.5 157q-62 41 -201 41q-80 0 -126 -20q-54 -31 -107 -62z" />
<glyph unicode="5" d="M156 251q0 102 62 173q66 73 166 73q109 1 168 -85q-41 26 -92 25q-40 0 -64 -31q-22 -28 -22 -69q0 -50 37.5 -82.5t87.5 -32.5q105 0 181 89q73 86 73 192q0 76 -47 122.5t-123 46.5q-47 0 -112 -44q-59 -38 -93 -82l-11 12q54 153 167 456q25 62 90 75q49 10 100 9 q25 0 75.5 -2t74.5 -2q66 0 115 24l-95 -240q-18 -46 -143 -45q-27 0 -79 4t-79 4q-67 0 -131 -162q90 64 182 64q128 0 205 -101q70 -91 70 -223q0 -188 -126.5 -314.5t-314.5 -126.5q-133 0 -223 69q-99 75 -99 204z" />
<glyph unicode="6" d="M225 392q0 260 175 479q187 231 441 231q97 0 203 -45l-123 -325q-100 113 -223 113q-137 0 -243.5 -111.5t-106.5 -249.5q0 -93 56 -162q59 -74 150 -74q80 0 133.5 59t53.5 140q0 74 -54 119t-129 45q-111 0 -135 -133h-15q5 99 78 163q71 61 171 61q135 0 215 -85 q76 -83 76 -219q0 -170 -97 -288q-105 -126 -270 -125q-171 0 -268 121q-89 111 -88 286z" />
<glyph unicode="7" d="M231 -47q0 113 54 237q53 120 136 201l102 99q-13 2 -28 2q-13 0 -87 -12q30 38 61 76q33 32 83 33q29 0 49 -10q97 73 252 264q-72 -33 -143 -33q-35 0 -106.5 7.5t-106.5 7.5q-59 0 -119.5 -56.5t-73.5 -116.5h-31l116 325q5 16 15 49q27 76 259 76q129 0 287 -23h-4 q18 0 55 14.5t58 14.5q-39 -175 -249 -427q-50 -59 -73 -98h16q54 0 109 16l-109 -121l-94 -4q-70 -78 -125 -187q-64 -126 -63 -213q0 -50 34 -89t84 -39q90 0 108 93l16 154l26 4q31 -184 32 -203q0 -127 -79 -225q-85 -105 -208 -104q-117 0 -188 87q-66 81 -65 201z" />
<glyph unicode="8" d="M160 298q0 128 93 210q70 61 213 108q114 35 228 71q95 33 96 113q0 45 -32.5 72t-78.5 27q-50 0 -85.5 -34t-35.5 -83q0 -91 70 -93q-21 -6 -43 -6q-65 0 -115.5 52.5t-50.5 117.5q0 108 84 181q80 70 190 70q113 0 191 -52q91 -60 91 -168q0 -110 -96 -177 q-55 -38 -209 -92q-147 -50 -201 -94q-82 -66 -82 -134q0 -158 173 -158q90 0 158 49q73 55 74 143q0 132 -107 156q30 11 62 12q89 0 141 -71q47 -64 46 -155q0 -180 -114 -282q-110 -98 -291 -98q-143 0 -252 85q-117 91 -117 230z" />
<glyph unicode="9" horiz-adv-x="899" d="M214 33l110 315q117 -104 236 -104q134 0 238.5 112.5t104.5 246.5q0 94 -56 164q-60 74 -153 74q-79 0 -130.5 -59.5t-51.5 -139.5q0 -73 54 -119.5t128 -46.5q111 0 135 135q9 -22 8 -39q0 -90 -66 -139q-59 -43 -153 -42q-128 0 -222 86.5t-94 213.5q0 175 94 289 q101 124 273 124q170 0 267 -124q90 -113 90 -287q0 -267 -174 -481q-186 -226 -446 -225q-120 -1 -192 46z" />
<glyph unicode=":" horiz-adv-x="450" d="M134 113q0 51 35.5 92t85.5 41q60 0 98 -40.5t38 -101.5q0 -55 -37.5 -90.5t-92.5 -35.5q-56 0 -91.5 39t-35.5 96zM333 694q0 54 32 94q34 43 87 43q58 0 97.5 -40t39.5 -98q0 -54 -37.5 -90.5t-91.5 -36.5q-127 0 -127 128z" />
<glyph unicode=";" horiz-adv-x="444" d="M56 -273q104 53 160 143q35 56 35 78q0 21 -30 31q-43 14 -56 26q-30 27 -31 88q0 62 37.5 104.5t98.5 42.5q112 0 112 -130q0 -111 -102 -241q-93 -118 -202 -173zM326 693q0 53 38 94.5t90 41.5q57 0 92 -35t35 -92q0 -63 -39.5 -99.5t-102.5 -36.5q-113 0 -113 127z " />
<glyph unicode="&#x3c;" horiz-adv-x="1287" d="M214 612q51 69 52 118q0 15 -20 54l1139 486q-47 -66 -47 -111q0 -26 16 -68l-948 -395l809 -387q-43 -65 -42 -116q0 -29 11 -63z" />
<glyph unicode="=" horiz-adv-x="729" d="M93 296q72 113 100 216q207 -20 276 -20q142 0 460 25q-72 -84 -86 -217q-125 16 -391 16q-208 0 -359 -20zM211 648q72 113 100 214q207 -19 274 -19q143 0 461 25q-72 -84 -86 -216q-126 15 -390 15q-208 0 -359 -19z" />
<glyph unicode="&#x3e;" horiz-adv-x="1287" d="M130 130q43 72 43 121q0 22 -11 58l946 387l-808 395q37 47 37 124q0 25 -6 59v-4l980 -492q-50 -74 -51 -125q0 -19 8 -41z" />
<glyph unicode="?" horiz-adv-x="744" d="M279 523q0 85 54 169q51 80 129 123q112 44 225 87q142 66 142 183q0 42 -26 70.5t-68 28.5q-50 0 -91 -25q-49 -30 -49 -76q0 -39 88 -61q-80 -52 -166 -52q-110 0 -109 109q0 136 101 232q99 92 236 92q117 0 195 -51q91 -60 92 -172q0 -108 -59 -207.5t-154 -155.5 q-105 -40 -208 -81q-140 -58 -140 -141q0 -63 69 -63q92 0 92 69q0 43 -39 43q-12 0 -23 -6q50 50 134 51q111 0 111 -102q0 -111 -89 -185q-84 -69 -197 -69q-94 0 -167 47q-83 53 -83 143zM289 99q0 55 38.5 100t93.5 45t90 -35t35 -90q0 -61 -39.5 -101t-100.5 -40 q-117 0 -117 121z" />
<glyph unicode="@" horiz-adv-x="1648" d="M300 501q0 -259 173 -409q165 -141 428 -141q309 0 547 220l-33 118q-238 -199 -500 -199q-203 0 -329 109q-133 115 -134 314q0 255 194 444.5t450 189.5q168 0 275 -82q116 -90 116 -253q0 -196 -130 -328q-90 -91 -163 -92q-29 0 -29 43q0 48 52 199q36 98 73 197 l-217 -107q12 -26 12 -51q0 -81 -45 -156q-52 -86 -127 -85q-41 0 -67.5 30t-26.5 70q0 73 49 146q53 81 123 81q40 0 59 -18l240 123q-47 72 -175 72q-170 0 -313 -178q-137 -170 -137 -343q0 -63 42.5 -111.5t104.5 -48.5q53 0 113 65q17 17 86 110q-2 -14 -2 -30 q0 -147 132 -147q200 0 347 187q137 174 137 381q0 220 -146 348q-138 121 -361 121q-320 0 -567 -234q-251 -237 -251 -555z" />
<glyph unicode="A" horiz-adv-x="1490" d="M0 307q0 151 115 247q109 91 261 92q109 0 211 -66q109 -71 131 -172q-110 124 -215 124h-2q-73 0 -124 -36q-57 -42 -57 -112q0 -177 175 -177q171 0 264 125q67 90 111 282q25 109 25 131q0 32 -44 31q6 30 39 88q70 121 212 121q27 0 39 -2q-48 -29 -74 -64 q-33 -44 -148 -472q-53 -198 -130 -298q-99 -128 -278 -161q-34 -7 -79 -7q-343 0 -413 224q-19 62 -19 102zM716 751l211 550q166 104 359 104q15 0 61 -15q144 -50 144 -198q0 -67 -30 -181l-126 -490q-4 -14 -4 -59q0 -35 25 -60.5t60 -25.5q61 0 120 86q16 24 74 139 l30 -4l-201 -591l-41 -2q10 43 30 102q-97 -102 -149 -102q-66 0 -108.5 43t-42.5 107q0 24 7 57l176 743q2 8 2 16q0 56 -62 91q-53 31 -114 32q-138 0 -241 -114q-50 -55 -149 -230zM948 402q40 131 75 187q62 98 161 98l-43 -164q-140 0 -193 -121z" />
<glyph unicode="B" horiz-adv-x="1485" d="M0 312q0 162 128 267q119 98 285 98h2q268 0 367 -247q-87 130 -246 130h-2q-81 0 -140 -47q-64 -50 -64 -127q0 -81 62 -123q53 -36 137 -36q155 0 251 132q58 79 125 272q49 141 49 208q0 45 -33 45q-10 0 -18 -6q100 127 211 127q50 0 86 -16q-84 -62 -115 -128.5 t-59 -175.5q-72 -282 -114 -372q-88 -185 -264 -274q-123 -63 -266 -63q-150 0 -262 93q-120 98 -120 243zM566 739l205 555q190 104 419 104h4q164 0 279 -86q126 -95 126 -253q0 -141 -102 -238q-66 -63 -223 -142q99 -20 161 -107q58 -82 58 -185q0 -153 -101 -272 q-106 -125 -257 -125q-52 0 -208 49l-16 -69l-37 -1l154 532l37 -6q-10 -45 -10 -78q0 -126 127 -126h2q61 0 100 65q32 55 32 122q0 65 -42.5 113.5t-106.5 48.5q-53 0 -100 -35l39 115q26 -22 55 -22q36 0 92 37q95 65 95 180q0 80 -73 129q-63 43 -147 43 q-168 0 -309 -106q-108 -80 -222 -244z" />
<glyph unicode="C" horiz-adv-x="1279" d="M234 488q0 197 118 418q110 207 272 343q185 156 406 156q179 0 287 -98q114 -102 115 -279q0 -188 -159 -343.5t-348 -155.5q-141 0 -273 99l-90 -250q43 -45 136 -71q80 -24 155 -24q227 0 389 169q89 91 120 168l36 6q-142 -320 -235 -435q-170 -208 -428 -208h-2 q-64 0 -143 15q-94 18 -132 47l-26 -75l-38 20l27 79q-93 63 -143 185q-44 109 -44 234zM466 650q0 -179 68 -244q104 275 242 706q10 -250 209 -250q85 0 142 61.5t57 147.5q0 81 -66 137t-148 56q-209 0 -363 -208q-141 -191 -141 -406z" />
<glyph unicode="D" horiz-adv-x="1310" d="M195 915q0 224 159 360q151 130 379 130q281 0 481 -175q208 -182 208 -458q0 -314 -218 -555q-224 -247 -532 -247q-93 0 -198 21q-128 27 -180 72l-31 -94l-38 -2l212 560h35q-27 -48 -27 -96q0 -45 41 -78t84 -33q41 0 80 42q31 36 46 81q141 431 141 437q0 53 -63 53 q92 105 203 105h2q69 0 106 -47q-68 -1 -98 -97l-179 -561q-2 -6 -2 -10q0 -42 60 -42q170 0 289 123.5t119 293.5q0 188 -140 310q-133 116 -324 116q-113 0 -206 -57q-107 -66 -107 -172q0 -74 35 -121q39 -52 112 -52q10 0 52 11q-33 -136 -177 -136q-143 0 -233.5 88 t-90.5 230z" />
<glyph unicode="E" horiz-adv-x="1303" d="M259 556q46 126 141 205q77 63 220 121q-8 47 -8 92q0 184 109 302q111 124 293 124q105 0 184 -38q68 -32 152 -111l-177 -514l-38 6q26 49 26 110q0 91 -48 156q-54 70 -143 70q-65 0 -118 -52.5t-58 -117.5q88 0 166 -38q97 -47 97 -124q0 -67 -52 -103 q-46 -31 -115 -32q-72 0 -140 48q-65 45 -98 113q-68 -15 -118 -82.5t-50 -138.5q0 -117 105 -189q92 -65 215 -65q219 0 413 174q156 140 188 252l32 -11l-272 -739l-39 4l21 96q-61 -46 -172 -76q-101 -29 -182 -29h-5q-393 0 -515 260q-42 90 -42 173q0 76 28 154z M800 823q0 -50 29 -84.5t78 -34.5q65 0 65 53q0 49 -69 64q-51 8 -103 14v-12z" />
<glyph unicode="H" horiz-adv-x="1654" d="M6 355q0 150 115 256.5t266 106.5q241 0 378 -223l-18 -11q-34 41 -96.5 70t-116.5 29q-79 0 -140 -57t-61 -135q0 -74 57.5 -125.5t132.5 -51.5q105 0 199 77t123 180l152 545q-110 0 -209 22h2q-69 -3 -97 -41q-30 -41 -92 -195l-29 -2l179 535q107 40 185 40h4 q37 0 109 -11.5t107 -11.5q48 0 145 46q-62 -71 -145 -255q-78 -175 -99 -277q-7 -33 -29 -119l-95 -360q-110 -412 -488 -413q-181 0 -305 98q-134 107 -134 283zM1024 551l70 208q45 22 90 43q52 27 74 64l-58 -150q-20 -50 -40.5 -68.5t-76.5 -38.5zM1114 140 q0 48 25 133l268 892q69 231 294 231q113 0 175.5 -62t62.5 -175q0 -110 -82 -180q-77 -66 -186 -66h-3q-93 0 -134 55q13 -6 26 -6q30 0 52.5 19.5t22.5 48.5q0 57 -75 57q-92 0 -165 -254q-24 -75 -48 -151q-29 -99 -29 -157q0 -69 30 -114q35 -53 100 -54q81 0 161 105 q70 92 85 182l30 -6l-228 -664l-35 7l53 171q-127 -165 -238 -165h-1q-69 0 -115 42.5t-46 110.5z" />
<glyph unicode="I" horiz-adv-x="1207" d="M52 363q0 168 113 260q104 87 274 87q169 0 311 -78q108 -59 253 -197q20 28 45 101l144 432q-83 4 -232 56q-10 4 -20 4q-72 0 -166 -189l-19 8l179 484q147 64 205 64q42 0 119 -38.5t119 -38.5q74 0 131 56l13 -32q-110 -92 -167 -283l-185 -603q-30 -96 -63 -177 q12 -59 12 -127q0 -20 -3 -185h-34q0 173 -7 260q-205 -251 -491 -251q-205 0 -353 89q-177 107 -178 298zM412 398q0 -83 80 -128q67 -37 158 -38q203 0 306 144q-56 73 -159.5 124t-195.5 51q-76 0 -129 -38q-60 -43 -60 -115z" />
<glyph unicode="K" horiz-adv-x="1693" d="M0 343q0 78 37 158q100 215 380 215q125 0 230 -72q99 -68 157 -184l-10 -17q-63 76 -106 102q-55 32 -146 32q-82 0 -141 -43q-66 -49 -66 -126q0 -86 83 -138q71 -45 163 -45q130 0 243 115q96 97 146 235l164 453q-42 -17 -104 -17q-30 0 -83.5 14.5t-72.5 14.5 q-81 0 -125 -75q-10 -14 -58 -144h-34l172 521q90 15 162 15q43 0 127 -17t127 -17q45 0 90 25q50 27 60 67h31l-64 -112q-84 -145 -208 -589l32 29q51 135 176 367q154 288 401 288h2q116 0 191 -76.5t75 -191.5q0 -109 -72.5 -181.5t-181.5 -72.5q-186 0 -222 168 q10 -2 23 -2q76 0 77 56q0 58 -73 58q-113 0 -225 -146q-39 -51 -147 -245q136 115 210 115q39 0 64.5 -29t25.5 -69q0 -55 -35.5 -179.5t-35.5 -163.5q0 -36 26.5 -65t62.5 -29q94 0 160 82q23 29 93 162l32 -6l-237 -602l-29 8l39 108q-106 -105 -224 -105q-81 0 -131 43 q-54 46 -55 125q0 35 54 198q34 105 69 210q31 99 32 119q0 56 -52 56q-57 0 -126 -121q-23 -41 -82 -175q-54 -124 -109 -203q-86 -125 -207 -197q-131 -78 -273 -78q-293 0 -415 176q-67 96 -67 198z" />
<glyph unicode="M" horiz-adv-x="1997" d="M130 623q119 103 280 103q151 0 269 -88q129 -93 144 -238q-25 82 -97 132.5t-158 50.5q-99 0 -173 -52q-81 -59 -81 -155q0 -92 71 -150q66 -54 161 -55q119 0 221 60q109 63 150 169l82 207q50 128 51 185q0 54 -45 62q22 49 82 93q64 46 115 46q21 0 45 -6 q-33 -27 -53 -83q-13 -48 -27 -96q-46 -158 -92 -317q-70 -212 -146 -305q-179 -213 -447 -214q-198 0 -328 91q-148 103 -148 291q0 162 124 269zM819 780l201 521q166 86 311 86q137 0 198 -54q65 -58 65 -194q0 -49 -12 -95q93 187 147 246q98 110 251 110q36 0 107 -4.5 t108 -4.5q23 0 63 17t60 18l1 -2v-4q-9 -16 -20 -45v-1q-124 -289 -198 -289q-26 0 -77 3t-77 3q-219 0 -292 -61q-98 -82 -170 -347l-158 -588q-1 -3 -1 -6q0 -34 108 -95l-423 2q80 19 115 45q44 33 66 104l172 559q34 111 34 205q0 150 -151 150h-2q-138 0 -236 -81 q-75 -62 -155 -200zM1569 145q0 44 23 125l171 604q25 90 90 125q42 23 154 41q-106 -70 -130 -160l-79 -277q-17 -61 -17 -110q0 -35 38 -64q35 -27 72 -27q70 0 130 92q27 40 77 154l24 -2l-224 -657l-35 -2l25 93q-99 -76 -155 -76q-164 0 -164 141z" />
<glyph unicode="O" horiz-adv-x="1287" d="M214 507q0 147 75 326q103 248 287 403q207 174 456 175q211 0 316 -119q67 -75 67 -139q-1 -68 -77 -129q-18 29 -37 67q-87 173 -304 173q-232 0 -390 -172q-154 -168 -155 -403q0 -149 69 -233l86 211q0 22 -3 64t-3 63q0 82 56 180q115 199 317 199q195 0 314 -128 q115 -124 115 -321q0 -301 -192 -517q-199 -226 -497 -226q-133 0 -281 84l-39 -98l-39 11l39 110q-109 102 -144.5 185t-35.5 234zM554 425q30 -52 123 -89q83 -32 154 -32q179 0 305 126t126 305q0 130 -73 222q-79 100 -206 100q-132 0 -216 -134q66 41 148 41 q91 0 150 -65t59 -156q0 -110 -73 -191q-75 -83 -182 -83h-3q-65 0 -137 45q-69 44 -105 102zM798 758.5q27 -28.5 60 -28.5q29 0 50 22.5t21 51.5q0 74 -94 74q-64 0 -64 -55q0 -36 27 -64.5z" />
<glyph unicode="P" horiz-adv-x="1388" d="M10 350q0 189 124 301q119 108 307 108h3q151 0 289 -66q102 -50 246 -166q37 72 47 148q-78 41 -113 107q43 -9 129 -23q19 78 19 113q0 50 -52 57q70 105 173 105q36 0 78 -18q-52 -50 -76 -119q-8 -22 -33 -138q185 4 185 172q0 150 -185 150h-2q-262 0 -529 -281 l-37 4l205 486q180 110 387 110q168 0 275 -86q117 -94 117 -259q0 -219 -195 -339q-70 -43 -240 -63q-10 -62 -71 -206q86 -143 86 -266q0 -105 -27 -209l-41 -2q29 94 29 198q0 139 -70 221q-175 -420 -582 -420q-178 0 -306 100q-140 109 -140 281zM333 417 q0 -183 239 -183q120 0 224 67q109 68 154 177q-64 64 -165.5 105t-192.5 41q-87 0 -120 -13q-139 -57 -139 -194z" />
<glyph unicode="U" horiz-adv-x="1202" d="M58 847l178 484q114 65 204 65h3q35 0 111 -39t121 -39q25 0 67.5 15.5t59.5 32.5l17 -24q-68 -55 -125 -203l-296 -765q38 -44 136 -44h4q271 0 332 210l203 715q17 61 80 98q57 34 124 34q18 0 39 -4q-118 -46 -175 -290l-134 -572q-4 -16 -4 -59q0 -35 25.5 -60.5 t60.5 -25.5q61 0 119 86q16 24 74 139l31 -4l-201 -591l-41 -2q7 35 29 102q-60 -111 -175 -112h-437q-105 0 -165 74q-55 68 -55 174q0 98 34 191l182 496q0 33 -51 43q-20 2 -59 7q-25 4 -83 29q-55 24 -71 24q-47 0 -90 -76q-6 -10 -54 -117z" />
<glyph unicode="X" horiz-adv-x="1490" d="M130 632.5q100 106.5 244 106.5q176 0 272 -60q101 -62 166 -221l-20 -6q-90 152 -232 153q-83 0 -138 -46q-59 -50 -59 -131q0 -84 71 -141q66 -52 153 -53q150 0 269 105.5t145 253.5q-15 10 -43 10q-57 0 -98 -65v14q0 84 44 144q48 67 128 73q7 43 6 60 q0 113 -77.5 185.5t-191.5 72.5q-252 0 -328 -236h-28l155 478q179 64 249 64q344 0 344 -380q142 387 445 387h2q90 0 149 -48q63 -51 63 -137v-3q0 -98 -62.5 -158.5t-161.5 -60.5q-49 0 -82 14q18 27 18 58q0 69 -76 69q-97 0 -193 -137q-81 -116 -102 -228q13 -4 29 -4 q47 0 82 23q18 11 64 57l-72 -149q-27 -55 -53 -74t-89 -30q-14 -80 -14 -97q0 -72 44.5 -115t117.5 -43q79 0 148 64q67 61 86 141h26l-171 -570l-30 2l13 102q-49 -55 -86 -73q-41 -20 -111 -20q-68 0 -119.5 48.5t-51.5 115.5q0 53 15 136q21 109 24 134 q-12 -31 -69 -142q-79 -155 -175 -224q-107 -77 -274 -77q-185 0 -320 109q-145 116 -145 295q0 148 100 254.5z" />
<glyph unicode="Y" horiz-adv-x="1287" d="M138 1038q0 97 74 191q123 154 367 154q159 0 263 -98t104 -255q0 -29 -6 -86t-6 -86q0 -230 141 -230h1q94 0 170 199q67 185 132 370q90 199 221 199q50 0 110 -30l-129 -367q-43 58 -74 58q-29 0 -50.5 -29.5t-189.5 -491.5q-87 -240 -154 -333q-106 -146 -300 -205 q-56 -17 -162 -17q-97 0 -198 42q-45 18 -179 92l-55 -148l-37 2l208 593q55 -114 174.5 -192t244.5 -78q131 0 233 97q93 87 132 220q-76 -102 -157 -102q-87 0 -148 64q-58 62 -74 182q-8 99 -15 199q-14 105 -71 142q-2 10 -33 20q-25 7 -39 6q-73 0 -122 -33 q-54 -39 -54 -110q0 -152 160 -152q61 0 117 59q-25 -74 -118 -125q-84 -46 -166 -46h-4q-129 0 -221 99q-90 96 -90 226z" />
<glyph unicode="[" horiz-adv-x="504" d="M-26 -177q625 1566 627 1709h493l-20 -47q-66 2 -118 2q-165 0 -164 -26l-593 -1572q0 -18 146 -21q10 0 156 2l-19 -47h-508z" />
<glyph unicode="\" horiz-adv-x="997" d="M246 1352q70 -57 97 -125l498 -1210q43 26 93 26q53 0 100 -30q-37 37 -76 127l-515 1210q-49 -19 -98 -19q-54 0 -99 21z" />
<glyph unicode="]" horiz-adv-x="785" d="M-50 -177l19 47q67 -2 119 -2q164 0 163 24l594 1573q0 19 -147 22q-9 0 -156 -2l20 47h507q-624 -1578 -626 -1709h-493z" />
<glyph unicode="^" horiz-adv-x="1109" d="M140 595l340 697h152l342 -697h-170l-248 519l-245 -519h-171z" />
<glyph unicode="_" horiz-adv-x="1014" d="M0 -199h1014v-177h-1014v177z" />
<glyph unicode="`" horiz-adv-x="579" d="M30 1381q0 31 35 30l62 -4q10 0 31 2t32 2q33 0 58 -37l39 -59q7 -10 67 -80q56 -61 56 -68q0 -24 -39 -24q-81 0 -207 79q-134 85 -134 159z" />
<glyph unicode="a" horiz-adv-x="887" d="M168 177q0 219 171 430q180 222 393 222q158 -1 216 -92l-300 -152q-22 22 -73 22q-88 0 -154 -100q-60 -90 -60 -183q0 -52 33 -89.5t84 -37.5q94 0 159 109q55 94 56 193q0 31 -16 63l271 134q-41 -114 -82 -227q-70 -197 -70 -233q0 -37 41 -37q32 0 99 112l20 -4 q-50 -103 -98 -206q-70 -123 -173 -123q-100 0 -100 119q0 54 14 98q-90 -119 -106 -136q-77 -83 -142 -83q-79 0 -132 62q-51 59 -51 139z" />
<glyph unicode="b" horiz-adv-x="880" d="M232 193q0 172 283 880q43 109 135 168q82 54 199 54q232 0 232 -222q0 -119 -93.5 -209.5t-213.5 -90.5q-52 0 -93 38t-43 90q54 -78 129 -78q42 0 73 63q26 52 26 99q0 44 -27.5 76t-71.5 32q-32 0 -60 -25.5t-44 -68.5q-61 -162 -216 -607q-15 -44 -15 -76 q0 -100 126 -100q78 0 144.5 65.5t66.5 143.5q0 106 -104 106q-101 0 -136 -98l-17 4l108 293q67 11 104 11q90 0 146.5 -52.5t56.5 -140.5v-43q0 -176 -131 -343q-139 -177 -308 -177q-255 0 -256 208z" />
<glyph unicode="c" horiz-adv-x="811" d="M320 650q122 179 306 179q95 0 164 -57q72 -61 72 -154q0 -90 -54.5 -142.5t-144.5 -52.5q-28 0 -58 20q22 6 39 30.5t17 47.5q0 43 -32 70q-29 23 -71 23h-4q-85 0 -145.5 -61.5t-60.5 -146.5q0 -81 75 -138q69 -53 152 -54q86 0 159 54q70 51 105 132h25 q-70 -422 -386 -422q-126 0 -200 99q-67 89 -67 215q0 197 109 358z" />
<glyph unicode="e" horiz-adv-x="811" d="M203 304q0 144 78 271q75 123 203 198q93 54 169 54q232 0 233 -222q0 -118 -94.5 -209.5t-212.5 -91.5q-66 0 -120 41q-59 44 -63 107q52 -78 129 -78q55 0 101 44t46 99q0 53 -41 88q-38 31 -93 31q-81 0 -141 -85q-54 -77 -54 -162q0 -91 70 -155q68 -61 160 -61 q100 0 200 77t132 173l26 -6q-18 -58 -100 -199q-136 -235 -336 -235q-130 0 -213 97q-79 92 -79 224z" />
<glyph unicode="g" horiz-adv-x="880" d="M-43 -291q0 81 75 138q70 52 154 52q81 0 136 -36q42 -29 97 -103l-17 -17q-45 58 -131 58q-100 0 -100 -99q0 -86 100 -86q95 0 153 66q42 47 79 152q31 82 62 165q43 117 46 165q-104 -125 -117 -136q-73 -69 -157 -69q-167 0 -167 209q0 235 154 427q187 234 415 234 q162 0 203 -94l-257 -156q-31 35 -78 35q-97 0 -177 -125q-72 -112 -73 -218q0 -50 33 -81.5t82 -31.5q91 0 174 127q74 116 74 214q0 28 -16 55l256 150l-254 -819q-59 -191 -160 -279q-112 -97 -304 -98q-103 0 -187 49q-98 57 -98 152z" />
<glyph unicode="i" horiz-adv-x="538" d="M199 97q0 64 28 151l130 409q15 48 15 90q0 56 -5 68q42 -3 84 -3h21q101 0 176 11q-11 -27 -43 -74q-16 -24 -45 -105l-111 -313q-21 -59 -21 -95q0 -48 33 -48h1q24 0 65 51l50 72l15 -4q-39 -106 -105 -204q-90 -132 -165 -133q-52 0 -87.5 37.5t-35.5 89.5zM482 1046 q0 50 35 90t84 40q48 0 77.5 -30.5t29.5 -78.5q0 -127 -129 -127q-97 0 -97 106z" />
<glyph unicode="m" horiz-adv-x="1273" d="M110 -17q74 84 133 237q43 128 87 256q23 66 23 88q0 45 -44 45q-39 0 -95 -108l-21 6q128 314 269 314q115 0 115 -132q0 -72 -29 -112q111 141 124 154q85 88 163 88h2q107 0 107 -113q0 -73 -19 -121q170 238 275 238q120 0 120 -103q0 -70 -54 -228 q-38 -105 -76 -209q-11 -33 -12 -39q0 -43 43 -43q41 0 78 113l21 -5q-97 -324 -257 -324q-45 0 -80 28.5t-35 72.5q0 32 62 212q40 112 79 225q4 11 4 29q0 60 -51 60q-70 0 -127 -100q-24 -42 -66 -164q-27 -69 -54 -137q-34 -96 -34 -146q0 -33 13 -75q-62 8 -122 8 q-74 0 -149 -20q49 65 113 239q40 116 80 234q30 82 30 107q0 54 -49 54q-90 0 -193 -241q-93 -217 -93 -326q0 -31 11 -62q-82 11 -164 11q-35 0 -128 -11z" />
<glyph unicode="n" horiz-adv-x="926" d="M115 -15q53 74 156 319q98 234 98 273q0 50 -45 51q-39 0 -93 -121l-17 8q41 106 102 193q86 121 164 121q115 0 115 -105q0 -28 -16 -132q5 10 22 34q84 118 100 134q66 69 146 69q127 0 127 -127q0 -58 -73.5 -234.5t-73.5 -223.5q0 -39 33 -39q49 0 84 109l24 -7 l-86 -186q-63 -136 -172 -136t-109 105q0 62 79 259t79 236q0 25 -20 43t-45 18q-84 0 -202 -265q-108 -241 -108 -340q0 -30 10 -58q-70 19 -131 19q-38 0 -148 -17z" />
<glyph unicode="o" horiz-adv-x="858" d="M205 294q0 275 220 434q109 77 201 85q-230 -183 -230 -403q0 -84 41 -144q47 -69 127 -69q101 0 160 90q52 78 52 184q0 140 -134 140q-50 0 -98.5 -39t-63.5 -86l-35 -6q54 193 232 341q25 8 29 8q99 0 161 -109q52 -92 52 -199q0 -197 -108 -361q-123 -186 -310 -186 q-130 0 -214 96q-82 92 -82 224z" />
<glyph unicode="p" horiz-adv-x="874" d="M-110 -469q167 248 328 707q123 350 123 437q0 97 -95 123q111 0 327 45q-31 -92 -91 -275q108 169 108 168q74 92 165 93q112 0 165 -111q40 -84 40 -211q0 -180 -126 -347q-135 -179 -309 -179q-102 0 -168 77l95 254q35 -67 47 -81q33 -43 78 -43q99 0 163 95 q56 84 56 188q0 161 -129 161h-2q-164 0 -316 -404q-117 -311 -146 -563q-4 -32 -10 -136q-139 18 -176 19q-64 0 -127 -17z" />
<glyph unicode="u" horiz-adv-x="975" d="M232 495q9 38 34 92q50 110 84 153q63 81 145 81q115 0 116 -119q0 -72 -66.5 -237.5t-66.5 -218.5q0 -60 53 -60q128 0 220 362q45 176 45 204q0 39 -18 77q67 -19 139 -19q105 0 146 25q-57 -101 -107 -254q-39 -132 -78 -265q-22 -71 -22 -89q0 -37 28 -37 q43 0 91 117l32 -3q-55 -122 -62 -136q-46 -94 -73 -125q-50 -54 -123 -54q-109 0 -109 134q0 74 13 115q-103 -158 -182 -228q-39 -32 -106 -32q-49 0 -83 32t-34 80q0 66 105 370q29 82 29 104q0 43 -37 43q-34 0 -88 -112h-25z" />
<glyph unicode="x" horiz-adv-x="928" d="M69 121q0 80 47.5 129.5t127.5 49.5q58 0 97 -41q-22 0 -42 -19.5t-20 -40.5q0 -45 45 -45q50 0 108 92q44 68 67 138h-7q-80 0 -123 -54q34 94 38 101q31 59 83 59q40 0 52 -4q16 41 16 74q0 78 -74 78q-63 0 -108 -42q-14 -14 -74 -93l-31 2q66 105 132 208 q93 119 198 120q52 0 87.5 -32.5t35.5 -84.5q0 -26 -8 -61q133 188 238 188q57 0 98 -39t41 -96q0 -71 -67 -120q-61 -44 -134 -44q-45 0 -82 24q62 28 62 63q0 34 -45 34q-73 0 -146 -179q19 -8 64 -8t92 21q-39 -76 -98 -123h-95q-20 -37 -20 -82q0 -89 87 -89h2 q75 0 137.5 46.5t76.5 119.5h29q-51 -140 -130 -245q-108 -143 -219 -143q-147 0 -149 218q-17 -43 -60 -103q-50 -69 -87 -91q-45 -29 -121 -29q-55 0 -90 45q-31 41 -31 98z" />
<glyph unicode="y" horiz-adv-x="867" d="M62 -162.5q54 51.5 131 51.5q62 0 114 -34q60 -37 60 -95q0 -14 -4 -28q-31 30 -78 30q-72 0 -73 -64q0 -76 97 -76q58 0 110 69q56 75 197 549q-76 -123 -118 -170q-86 -97 -170 -98q-48 0 -83.5 35t-35.5 83q0 81 65 248.5t65 223.5q0 37 -37 37q-25 0 -71 -111h-28 q121 349 254 349h1q108 0 108 -113q0 -71 -100 -387q-17 -54 -17 -69q0 -53 48 -54q86 0 176 222q80 196 80 299q0 52 -35 104q81 -27 131 -27h4q93 0 195 33q-50 -39 -88 -127q-14 -33 -49 -148q-117 -379 -218 -685q-121 -365 -425 -365q-103 0 -175 43q-85 49 -85 144 q0 79 54 130.5z" />
<glyph unicode="z" horiz-adv-x="718" d="M-121 -291q0 81 75 138q70 52 154 52q81 0 136 -36q42 -29 97 -103l-17 -17q-45 58 -131 58q-100 0 -100 -99q0 -86 100 -86q26 0 90 42q102 66 164 169q65 109 65 223q0 112 -38 158.5t-146 68.5l20 73q190 22 190 125q0 49 -39 81.5t-87 32.5q-81 0 -149 -43 q-71 -47 -92 -121l-20 -2l128 342q78 62 226 62q250 0 250 -214q0 -86 -79 -176q-75 -85 -159 -109q100 -38 125 -55q50 -33 79 -106q24 -60 24 -113q0 -225 -176 -387q-171 -158 -398 -159q-107 0 -190 47q-102 56 -102 154z" />
<glyph unicode="{" horiz-adv-x="702" d="M171 -177h508l19 47q-154 6 -302 22q89 242 273 722q10 27 10 24q0 17 -115 88q47 17 93 33q73 29 82 45q1 2 8 19l244 638q0 28 283 24l20 47h-494q-1 -80 -101 -357q-86 -238 -145 -360q-25 -50 -258 -89q193 -31 194 -76q-1 -36 -319 -827z" />
<glyph unicode="|" horiz-adv-x="567" d="M322 13q22 37 23 127l12 1210q56 -19 107 -19q55 0 90 21q-48 -56 -47 -125l6 -1210q-55 26 -103 26q-55 0 -88 -30z" />
<glyph unicode="}" horiz-adv-x="843" d="M-125 -177h494q0 83 100 356q84 230 145 359q24 50 258 90q-192 31 -193 76q0 35 318 828h-507l-19 -47q151 -7 302 -24q-95 -249 -283 -745q2 -19 115 -88q-52 -17 -105 -35q-66 -27 -79 -62l-244 -639q0 -26 -283 -22z" />
<glyph unicode="~" horiz-adv-x="690" d="M341 482q0 125 63 125q2 0 15 -2l355 -51l4 4q-30 27 -29 43q0 8 12 13q0 28 25 28q37 0 71 -49q32 -45 33 -83q-1 -108 -96 -108q-57 0 -168 26t-168 26q9 -11 18 -31q-11 -7 -15 -26q-3 -15 -20 -15q-27 0 -63.5 35.5t-36.5 64.5z" />
<glyph unicode="&#xa4;" horiz-adv-x="1209" d="M331 273l104 103q-94 127 -94 281q0 178 96 289l-106 106l101 101l104 -107q119 99 295 99q162 0 281 -95l103 103l100 -101l-105 -102q101 -117 101 -289q0 -168 -97 -285l102 -103l-97 -100l-104 104q-125 -102 -286 -102q-170 0 -295 102l-102 -104zM499 657 q0 -137 96.5 -230.5t233.5 -93.5t230.5 95.5t93.5 232.5q0 136 -93 231t-229 95q-142 0 -237 -94t-95 -236z" />
<glyph unicode="&#xa6;" horiz-adv-x="506" d="M181 -37l231 575h146l-230 -575h-147zM556 897l217 540h146l-217 -540h-146z" />
<glyph unicode="&#xa7;" horiz-adv-x="843" d="M-151 -298q0 22 97.5 80t127.5 58q11 0 12 -8q0 -12 -8 -36.5t-8 -37.5q0 -39 20 -72q22 -39 57 -39q79 0 122 65q35 55 35 138q0 40 -12 83l-74 276q0 156 62 254q49 77 191 189q58 46 216 115q52 23 48 35q-41 145 -41 175q0 46 16 82q32 76 173 162t227 86 q199 0 199 -76q0 -37 -93 -104q-64 -43 -129 -85l-8 8q17 33 35 66q25 48 25 64q0 33 -76 34q-69 0 -120 -34q-59 -39 -59 -104q0 -49 72 -172.5t72 -218.5q0 -159 -142 -359q-41 -57 -208 -144l-220 -106q26 -96 26 -147q0 -67 -15 -104q-42 -99 -179 -193t-243 -94 q-70 0 -132 47q-66 50 -66 117zM452 367q0 -177 88 -177q66 0 141 69q68 61 97.5 129.5t29.5 155.5q0 174 -102 174q-113 0 -189 -124q-65 -107 -65 -227z" />
<glyph unicode="&#xa9;" horiz-adv-x="1429" d="M263 704q0 277 188.5 465t465.5 188q276 0 465 -188.5t189 -464.5q0 -275 -189 -465t-465 -190q-275 0 -464.5 189.5t-189.5 465.5zM337 704q0 -246 167 -412.5t413 -166.5q244 0 411.5 167.5t167.5 411.5t-167.5 411t-411.5 167q-243 0 -411.5 -167.5t-168.5 -410.5z M609 587q0 157 119 304q125 155 279 155q83 0 140 -46q61 -49 61 -130q0 -104 -76 -182.5t-178 -78.5q-70 -1 -137 48l-44 -125q45 -47 146 -46q79 0 150 47t104 120l19 4q-70 -158 -119 -217q-87 -105 -215 -105q-105 0 -136 32l-14 -37l-19 9l13 39q-93 63 -93 209z M726 669q0 -90 33 -123q52 139 121 353q4 -125 103 -125q44 0 72 31t28 75q0 41 -32 68t-74 27q-105 0 -181 -102q-70 -95 -70 -204z" />
<glyph unicode="&#xab;" horiz-adv-x="1084" d="M302 452l78 179l416 241l-80 -174l-271 -158l134 -158l-80 -173zM700 452l78 179l416 239l-79 -172l-272 -158l134 -158l-78 -173z" />
<glyph unicode="&#xac;" horiz-adv-x="1447" d="M207 472v113h1348v-585h-114v472h-1234z" />
<glyph unicode="&#xad;" horiz-adv-x="766" d="M218 472q70 112 100 215q207 -20 275 -20q6 0 324 26q-72 -84 -86 -217q-125 15 -254 16q-208 -1 -359 -20z" />
<glyph unicode="&#xae;" horiz-adv-x="1429" d="M261 694q0 277 188.5 465.5t465.5 188.5t465.5 -188t188.5 -466q0 -276 -189 -464.5t-465 -188.5t-465 188.5t-189 464.5zM335 693q0 -245 168 -411.5t412 -166.5t412 168t168 411t-169 410.5t-413 167.5q-245 0 -411.5 -167.5t-166.5 -411.5zM439 515q0 78 55.5 133.5 t133.5 55.5q71 0 131.5 -38t85.5 -104l-10 -10q-39 84 -129 84q-45 0 -77 -24q-35 -27 -36 -70q0 -46 42 -71q36 -22 85 -22q126 0 172 150l30 90q18 55 18 91q0 33 -29 37q78 49 121 49q5 0 33 -6q-55 -11 -93 -150q-52 -193 -84 -250q-75 -131 -223 -130q-90 0 -154 46 q-71 52 -72 139zM737 724l92 255q102 61 230 61q88 0 145 -37q68 -44 68 -127q0 -81 -77 -133q-66 -46 -151 -50q18 -14 19 -61q-2 90 -2 -64q0 -54 39 -55q44 0 72 42q20 39 40 79l11 -2l-95 -289l-20 2v33q-23 -39 -68 -39q-27 0 -46.5 21t-19.5 48q0 28 29 112t29 122 q0 33 -29 45l6 21q43 2 80 29q41 30 41 71q0 91 -106 91q-129 0 -212 -97q-18 -26 -57 -76z" />
<glyph unicode="&#xb0;" horiz-adv-x="811" d="M451 1085q0 132 86 218t218 86q130 0 219 -87t89 -217q0 -128 -89 -216.5t-217 -88.5q-126 0 -216 89.5t-90 215.5zM536 1085q0 -93 64 -158t157 -65q92 0 157 65.5t65 157.5q0 100 -70 162q-67 60 -168 60q-90 0 -147.5 -65.5t-57.5 -156.5z" />
<glyph unicode="&#xb1;" horiz-adv-x="1113" d="M19 0l44 113h1074l-43 -113h-1075zM292 716l41 111h480l184 482h113l-183 -482h482l-41 -111h-482l-184 -480h-113l184 480h-481z" />
<glyph unicode="&#xb5;" horiz-adv-x="2048" />
<glyph unicode="&#xb6;" horiz-adv-x="1047" d="M151 1042q0 176 127 273q114 86 297 85h512v-1735h-147v1617h-226v-1617h-146v1007q-181 0 -296 93q-122 100 -121 277z" />
<glyph unicode="&#xb7;" horiz-adv-x="610" d="M292 419q0 60 68.5 131.5t127.5 71.5q44 0 44 -43q0 -59 -60 -131q-64 -75 -122 -76q-57 0 -58 47z" />
<glyph unicode="&#xbb;" horiz-adv-x="1084" d="M190 209l71 173l271 158l-136 158l73 174l206 -241l-76 -180zM589 209l72 173l272 158l-137 158l72 174l206 -241l-75 -180z" />
<glyph unicode="&#x2000;" horiz-adv-x="785" />
<glyph unicode="&#x2001;" horiz-adv-x="1571" />
<glyph unicode="&#x2002;" horiz-adv-x="785" />
<glyph unicode="&#x2003;" horiz-adv-x="1571" />
<glyph unicode="&#x2004;" horiz-adv-x="523" />
<glyph unicode="&#x2005;" horiz-adv-x="392" />
<glyph unicode="&#x2006;" horiz-adv-x="261" />
<glyph unicode="&#x2007;" horiz-adv-x="261" />
<glyph unicode="&#x2008;" horiz-adv-x="196" />
<glyph unicode="&#x2009;" horiz-adv-x="314" />
<glyph unicode="&#x200a;" horiz-adv-x="87" />
<glyph unicode="&#x2010;" horiz-adv-x="766" d="M218 472q70 112 100 215q207 -20 275 -20q6 0 324 26q-72 -84 -86 -217q-125 15 -254 16q-208 -1 -359 -20z" />
<glyph unicode="&#x2011;" horiz-adv-x="766" d="M218 472q70 112 100 215q207 -20 275 -20q6 0 324 26q-72 -84 -86 -217q-125 15 -254 16q-208 -1 -359 -20z" />
<glyph unicode="&#x2012;" horiz-adv-x="766" d="M218 472q70 112 100 215q207 -20 275 -20q6 0 324 26q-72 -84 -86 -217q-125 15 -254 16q-208 -1 -359 -20z" />
<glyph unicode="&#x2013;" horiz-adv-x="1016" d="M151 478v205h902v-205h-902z" />
<glyph unicode="&#x2014;" horiz-adv-x="1016" d="M151 478v205h1092v-205h-1092z" />
<glyph unicode="&#x2018;" horiz-adv-x="424" d="M396 993q0 111 90 233q80 110 187 170l25 -30q-58 -30 -115 -94q-66 -72 -66 -127q0 -20 34 -33q47 -19 61 -34q33 -31 34 -95q0 -54 -34 -92t-87 -38q-129 0 -129 140z" />
<glyph unicode="&#x2019;" horiz-adv-x="424" d="M423 874q180 120 180 220q0 24 -33 36q-47 15 -61 28q-32 30 -33 100q0 52 32 90.5t84 38.5q132 0 132 -140q0 -113 -89 -234q-83 -112 -190 -168z" />
<glyph unicode="&#x201a;" horiz-adv-x="433" d="M80 -291l37 92q109 17 185 199h-103l86 207h207q-107 -256 -141 -309q-99 -152 -271 -189z" />
<glyph unicode="&#x201c;" horiz-adv-x="750" d="M423 985q0 114 89 234q82 111 190 168l22 -30q-180 -121 -180 -220q0 -23 33 -35q47 -17 61 -30q33 -30 34 -98q0 -53 -32 -90q-33 -39 -86 -39q-131 0 -131 140zM716 985q0 114 88 234q82 111 190 168l22 -30q-179 -121 -179 -220q0 -23 33 -35q48 -17 61 -30 q33 -30 33 -98q0 -53 -31 -90q-33 -39 -86 -39q-131 0 -131 140z" />
<glyph unicode="&#x201d;" horiz-adv-x="750" d="M423 874q180 120 180 220q0 24 -33 36q-47 15 -61 28q-32 30 -33 100q0 52 32 90.5t84 38.5q132 0 132 -140q0 -113 -89 -234q-83 -112 -190 -168zM716 874q179 120 179 220q0 24 -33 36q-47 16 -61 28q-32 30 -32 100q0 52 32 90.5t83 38.5q132 0 132 -140 q0 -113 -88 -234q-83 -112 -191 -168z" />
<glyph unicode="&#x201e;" horiz-adv-x="649" d="M13 -291l37 94q111 13 182 197h-105l82 207h206q-97 -251 -134 -310q-97 -153 -268 -188zM337 -291l35 92q118 22 180 199h-101l81 207h205q-108 -266 -134 -309q-95 -152 -266 -189z" />
<glyph unicode="&#x2022;" horiz-adv-x="502" d="M259 667q0 86 91 166q88 79 175 80q48 0 80.5 -29t32.5 -76q0 -71 -104 -152q-99 -77 -173 -77q-39 0 -70.5 25t-31.5 63z" />
<glyph unicode="&#x2026;" horiz-adv-x="1831" d="M253 45q0 60 68.5 131.5t127.5 71.5q44 0 44 -43q0 -59 -61 -132q-64 -75 -121 -75t-58 47zM864 45q0 60 67.5 131.5t127.5 71.5q45 0 45 -43q0 -59 -61 -132q-64 -75 -122 -75q-57 0 -57 47zM1475 45q0 60 67.5 131.5t127.5 71.5q45 0 45 -43q0 -59 -61 -132 q-64 -75 -122 -75q-57 0 -57 47z" />
<glyph unicode="&#x202f;" horiz-adv-x="314" />
<glyph unicode="&#x2039;" horiz-adv-x="649" d="M279 452l74 179l408 239l-70 -172l-272 -158l137 -158l-72 -173z" />
<glyph unicode="&#x203a;" horiz-adv-x="649" d="M173 209l71 173l271 158l-141 158l71 174l208 -241l-72 -180z" />
<glyph unicode="&#x205f;" horiz-adv-x="392" />
<glyph unicode="&#x2122;" horiz-adv-x="1761" d="M246 753q0 84 63 134q58 46 145 46q142 -1 259 -118q7 14 24.5 87t17.5 89q0 22 -25 41q65 55 113 55q13 0 29 -2q-38 -24 -67 -145q-21 -91 -42 -183q25 -55 25 -111q0 -50 -10 -86h-13q8 64 8 78q0 56 -26 92q-37 -71 -109.5 -117.5t-151.5 -46.5q-95 0 -163 45 q-77 51 -77 142zM410 771q0 -86 117 -86q55 0 104 29.5t67 79.5q-63 68 -171 68q-45 0 -78 -23q-39 -27 -39 -68zM579 979l90 262q76 41 162 41q31 0 94.5 -15.5t94.5 -15.5q20 0 49 46h14q-28 -64 -55 -127q-43 -81 -95 -81q-27 0 -82 11.5t-82 11.5q-136 0 -176 -133h-14z M841 763q0 82 61 134q58 49 142 49q76 0 135 -43q64 -46 72 -119q-30 92 -129 92q-50 0 -87 -26q-41 -29 -41 -77q0 -46 35.5 -75t82.5 -29q97 0 150 65q30 36 76 154q26 66 26 91q0 26 -24 32q12 25 42.5 47.5t56.5 22.5q10 0 22 -5q-24 -19 -60 -159q-41 -157 -91 -230 q-83 -117 -231 -117q-98 0 -164 46q-74 52 -74 147zM1249 974l99 261q84 43 156 42q131 0 131 -124q0 -23 -6 -47q57 104 77 125q49 53 131 53q16 0 49 -3.5t50 -3.5q11 0 30 8q25 9 32 10v-1l-10 -22v-2q-61 -144 -100 -144q-12 0 -37.5 2t-37.5 2q-115 0 -162 -47 q-38 -37 -71 -158l-78 -293q-5 -17 53 -51h-211q72 18 90 74l85 281q18 59 18 102q0 75 -76 76q-113 0 -195 -140h-17zM1623 652q0 27 12 66l85 302q18 63 121 84q-49 -32 -71 -96q-15 -61 -32 -122q-10 -33 -9 -55q0 -47 54 -47q50 0 103 123h14l-113 -330h-17l13 47 q-50 -39 -78 -39q-82 0 -82 67z" />
<glyph unicode="&#x25fc;" horiz-adv-x="843" d="M0 0v843h843v-843h-843z" />
</font>
</defs>
</svg>
